# xmcd
#
# Track frame offsets:
#	150
#	15562
#	31443
#	46403
#	62598
#	80565
#	99185
#	114922
#	133650
#	148343
#	164757
#	179551
#	198604
#	217504
#	236669
#	251362
#
# Disc length: 3583 seconds
#
# Revision: 1
# Processed by: cddbd v1.5.2PL0 Copyright (c) Steve Scherf et al.
# Submitted via: EasyCDDAExtractor 5.1.0
#
DISCID=dd0dfd10
DTITLE=Barry White - The Great's Collection
DYEAR=1990
DGENRE=Soul
TTITLE0=You're the first, the last, my everything
TTITLE1=Let the music play
TTITLE2=Don't make me wait too long
TTITLE3=What am I gonna do with you
TTITLE4=I'm gonna love you just a little more babe
TTITLE5=Never, never gonna give you up
TTITLE6=You see the trouble with me
TTITLE7=Loves the me
TTITLE8=Honey please, can't ya see
TTITLE9=Playing your game, baby
TTITLE10=Oh, what a night for dancing
TTITLE11=Your sweetness is my weakness
TTITLE12=Just the way you are
TTITLE13=Satin Soul
TTITLE14=Honey please, can't ya see (2)
TTITLE15=Can't get enough of your love babe
EXTD=
EXTT0=
EXTT1=
EXTT2=
EXTT3=
EXTT4=
EXTT5=
EXTT6=
EXTT7=
EXTT8=
EXTT9=
EXTT10=
EXTT11=
EXTT12=
EXTT13=
EXTT14=
EXTT15=
PLAYORDER=
